<?xml version="1.0" encoding="UTF-8"?>
<svg version="1.1" xmlns="http://www.w3.org/2000/svg" width="247" height="154">
<path d="M0 0 C1.86681789 2.56856149 3.49136452 5.20757375 5 8 C6.0725 7.835 7.145 7.67 8.25 7.5 C21.35086808 5.95192564 31.99844298 7.44086091 42.93359375 15.24609375 C51.21758643 22.27730871 55.43449332 31.39445964 57 42 C57.76183594 42.13535156 58.52367187 42.27070312 59.30859375 42.41015625 C68.52242885 44.33114309 74.55336346 47.66961051 80.4375 55.0625 C84.31671396 62.35542224 85.42063296 69.64766934 83.27734375 77.72265625 C80.35820769 85.55823198 76.38074357 90.78243225 69 95 C64.82387102 96.62454611 61.3498985 97.25306349 56.87896729 97.26742554 C55.67353271 97.27595551 54.46809814 97.28448547 53.22613525 97.29327393 C51.91691101 97.29236755 50.60768677 97.29146118 49.25878906 97.29052734 C47.85542444 97.29651681 46.4520631 97.30332331 45.04870605 97.31088257 C41.24684055 97.32850959 37.44506515 97.33323661 33.64316273 97.33451414 C31.26406996 97.33593843 28.8849999 97.34021334 26.50591278 97.34550858 C18.19500786 97.36399956 9.88416699 97.37218056 1.57324219 97.37060547 C-6.15551542 97.36940506 -13.88399332 97.39048992 -21.6126802 97.4220928 C-28.26259724 97.44830875 -34.91242324 97.45897051 -41.56239152 97.45769465 C-45.52765384 97.45718648 -49.49266758 97.4627887 -53.45787811 97.48405075 C-57.19103247 97.50352264 -60.92370345 97.50349728 -64.65687561 97.48901749 C-66.66594811 97.48595458 -68.67502111 97.50254391 -70.684021 97.51989746 C-79.82843807 97.4568487 -88.53411287 96.10631109 -95.5546875 89.6875 C-103.74157437 80.12875641 -105.80105401 72.35699987 -105 60 C-103.19548613 50.80921327 -96.97263802 44.21907579 -89.44140625 39.12890625 C-86.33276272 37.69146948 -83.38809828 37.35815863 -80 37 C-80.05220703 35.44152344 -80.05220703 35.44152344 -80.10546875 33.8515625 C-80.45408331 19.11596143 -77.43352375 6.99749801 -67 -4 C-66.34 -4 -65.68 -4 -65 -4 C-65 -4.66 -65 -5.32 -65 -6 C-44.76324203 -23.48855627 -17.60575252 -18.03956984 0 0 Z " fill="#1d1e1f" transform="translate(122,38)"/>
<path d="M0 0 C5.75924629 2.7973482 8.6222716 7.11333098 11.3125 12.75 C13.32397573 22.25879436 12.11919403 30.59389558 6.83203125 38.81640625 C2.63685598 44.23347723 -2.51372705 47.15710459 -9 49 C-11.96484184 49.25447559 -11.96484184 49.25447559 -15.13449097 49.26069641 C-16.9469783 49.27132362 -16.9469783 49.27132362 -18.79608154 49.28216553 C-20.10844788 49.27968811 -21.42081421 49.27721069 -22.77294922 49.2746582 C-24.179558 49.27900903 -25.58616442 49.28419342 -26.99276733 49.29014587 C-30.80277186 49.30350801 -34.61267702 49.3041176 -38.42270041 49.30158257 C-41.60844629 49.30051086 -44.79417223 49.30540142 -47.97991383 49.310188 C-55.4988315 49.32127379 -63.01769921 49.32172597 -70.53662109 49.31567383 C-78.28127764 49.30963561 -86.02575245 49.32194326 -93.77037799 49.3432439 C-100.43045324 49.36088493 -107.09047077 49.36685727 -113.75056851 49.36360615 C-117.72354204 49.36179696 -121.69638595 49.36439292 -125.66933823 49.37832069 C-129.4073513 49.39093506 -133.14508203 49.38892111 -136.88309097 49.37590981 C-138.89968864 49.37243269 -140.91629508 49.38369568 -142.93286133 49.39547729 C-149.67614434 49.35651446 -154.87566505 48.89591544 -161 46 C-157.2971997 44.62859248 -155.55272226 45.54532153 -152 47 C-149.06618977 47.29271432 -149.06618977 47.29271432 -145.89396667 47.24050903 C-144.05357819 47.24463303 -144.05357819 47.24463303 -142.17601013 47.24884033 C-140.82461449 47.24176304 -139.47321985 47.23449344 -138.12182617 47.22705078 C-136.69253548 47.22648637 -135.26324421 47.22680381 -133.83395386 47.22793579 C-129.96035557 47.22850913 -126.08688138 47.21675781 -122.21331191 47.20278788 C-118.1627476 47.19027746 -114.11218038 47.18910977 -110.06159973 47.18673706 C-102.39418192 47.18052321 -94.7268212 47.16411367 -87.05942851 47.14403808 C-78.32913603 47.12167614 -69.59884081 47.11068491 -60.86852682 47.10064721 C-42.91231885 47.07974736 -24.95616402 47.04457321 -7 47 C-7.33 45.68 -7.66 44.36 -8 43 C-5.03 42.34 -2.06 41.68 1 41 C1 40.01 1 39.02 1 38 C1.99 38 2.98 38 4 38 C4 37.34 4 36.68 4 36 C4.66 36 5.32 36 6 36 C8.29551402 27.2483528 9.55999085 18.5858603 6 10 C5.65023242 8.67088318 5.30903983 7.33917261 5 6 C4.01 6 3.02 6 2 6 C1.01 3.03 1.01 3.03 0 0 Z " fill="#1d1e1f" transform="translate(194,86)"/>
<path d="M0 0 C2.475 0.99 2.475 0.99 5 2 C5 2.66 5 3.32 5 4 C5.66 4 6.32 4 7 4 C7 4.99 7 5.98 7 7 C7.66 7 8.32 7 9 7 C9 7.66 9 8.32 9 9 C9.58050645 9.1230463 10.1610129 9.24609261 10.75911045 9.37286758 C13.0325955 10.00912213 14.78177752 10.91694795 16.85423279 12.03411865 C23.16619268 14.87206304 29.53663253 14.52978781 36.33227539 14.45410156 C37.76215584 14.45297138 39.19203861 14.45361028 40.62191772 14.45587158 C44.47890653 14.45701301 48.33539149 14.43359731 52.19226384 14.40557575 C56.23210761 14.38046604 60.27196462 14.37821259 64.31187439 14.37347412 C71.95090946 14.36107232 79.58971387 14.32828888 87.22864765 14.28807616 C95.92998826 14.24327107 104.63134024 14.22134951 113.33276761 14.20129442 C131.22197554 14.15955352 149.11096918 14.08925626 167 14 C167 14.66 167 15.32 167 16 C139.31843111 17.16369423 111.63553671 17.18773008 83.93359375 17.18530273 C77.45895723 17.18519947 70.98442638 17.19906149 64.50981522 17.21607494 C59.4844716 17.22715955 54.45915434 17.22922335 49.43379974 17.22869301 C47.04317599 17.22987036 44.65255149 17.23427833 42.26194 17.24202538 C38.94961261 17.25179076 35.63752634 17.24896532 32.32519531 17.24291992 C31.34773346 17.24853943 30.37027161 17.25415894 29.3631897 17.25994873 C24.76056066 17.23853529 21.19447916 17.10288844 17 15 C15.2675 14.566875 15.2675 14.566875 13.5 14.125 C7.10380114 12.06907894 3.29754657 7.6970379 0 2 C0 1.34 0 0.68 0 0 Z " fill="#1d1e1f" transform="translate(20,117)"/>
<path d="M0 0 C1.08989414 3.26968242 0.83484498 3.85032435 0 7 C-0.02367765 8.55342325 0.00603695 10.10822592 0.078125 11.66015625 C0.10390625 12.53607422 0.1296875 13.41199219 0.15625 14.31445312 C0.2189035 16.1509837 0.29711071 17.98704763 0.390625 19.82226562 C0.44915291 22.30421498 0.45511328 24.55872716 0 27 C-2.90988781 29.65878074 -4.38900235 29.96541523 -8.3125 30.1875 C-9.199375 30.125625 -10.08625 30.06375 -11 30 C-11.0928125 30.8353125 -11.0928125 30.8353125 -11.1875 31.6875 C-12.3476371 34.98942866 -14.45559795 36.62907991 -17 39 C-17.886875 39.928125 -18.77375 40.85625 -19.6875 41.8125 C-22 44 -22 44 -24 44 C-25.32915021 51.97490128 -25.08801359 59.94186719 -25 68 C-28.50909123 64.49090877 -28.18174882 60.55033299 -28.25 55.75 C-28.14589706 46.43278689 -25.45674768 39.79289072 -19 33 C-13.80382426 28.63672675 -9.81619056 26.72054505 -3 26 C-3.05220703 24.44152344 -3.05220703 24.44152344 -3.10546875 22.8515625 C-3.29272919 14.72133835 -3.09728418 7.66946559 0 0 Z " fill="#1d1e1f" transform="translate(45,49)"/>
<path d="M0 0 C2.95929119 2.75520215 5.03681826 5.46627288 7 9 C8.0725 8.835 9.145 8.67 10.25 8.5 C24.54104188 6.81128782 35.50736439 9.02137843 47 18 C48.75 19.55859375 48.75 19.55859375 50 21 C50 21.66 50 22.32 50 23 C46.65750371 22.40312566 44.53563658 21.26396123 42 19 C42 18.34 42 17.68 42 17 C40.35 16.67 38.7 16.34 37 16 C37 15.01 37 14.02 37 13 C30.44017739 10.57674663 24.23953934 10.83992977 17.3125 11 C15.07962226 11.05106639 12.84651526 11.09311564 10.61328125 11.125 C9.14048706 11.15980469 9.14048706 11.15980469 7.63793945 11.1953125 C4.88039939 10.99114479 3.30315016 10.50323993 1 9 C-0.4783226 6.04335481 -0.06032783 3.25770263 0 0 Z " fill="#1d1e1f" transform="translate(120,37)"/>
<path d="M0 0 C0 0.33 0 0.66 0 1 C-1.65 1 -3.3 1 -5 1 C-5 0.34 -5 -0.32 -5 -1 C-7.31 -1 -9.62 -1 -12 -1 C-12 -1.66 -12 -2.32 -12 -3 C-18.93 -3 -25.86 -3 -33 -3 C-33 -2.34 -33 -1.68 -33 -1 C-38.33931188 1.86034565 -43.07943568 3.73130765 -49 5 C-42.80914998 -2.22265835 -32.99556413 -5.20243455 -23.77734375 -5.96484375 C-15.2116501 -6.07327025 -7.55217014 -3.92865416 0 0 Z " fill="#1d1e1f" transform="translate(108,27)"/>
<path d="M0 0 C5.75924629 2.7973482 8.6222716 7.11333098 11.3125 12.75 C12.53221179 18.51591027 13.0010243 25.35153899 11 31 C8.9375 32.25 8.9375 32.25 7 33 C7.165 32.236875 7.33 31.47375 7.5 30.6875 C8.46727091 23.55387702 8.79853269 16.74940237 6 10 C5.65023242 8.67088318 5.30903983 7.33917261 5 6 C4.01 6 3.02 6 2 6 C1.34 4.02 0.68 2.04 0 0 Z " fill="#1d1e1f" transform="translate(194,86)"/>
<path d="M0 0 C2.80178062 3.2334275 3.74124175 6.10448769 4.6875 10.25 C4.93886719 11.32765625 5.19023437 12.4053125 5.44921875 13.515625 C5.72185547 14.74539062 5.72185547 14.74539062 6 16 C6.83144531 16.18175781 7.66289062 16.36351563 8.51953125 16.55078125 C9.60621094 16.80214844 10.69289062 17.05351563 11.8125 17.3125 C13.43091797 17.67794922 13.43091797 17.67794922 15.08203125 18.05078125 C17.9447156 18.98201592 19.15397066 19.68760535 21 22 C18.37428665 21.52450066 15.7494696 21.04477433 13.125 20.5625 C12.37863281 20.42779297 11.63226563 20.29308594 10.86328125 20.15429688 C5.2265625 19.11328125 5.2265625 19.11328125 3 18 C0.77222487 12.09333017 -0.41953291 6.29299361 0 0 Z " fill="#1d1e1f" transform="translate(173,64)"/>
<path d="M0 0 C1.32 0.33 2.64 0.66 4 1 C-0.85367182 4.84946386 -4.69524441 5.14043085 -10.73046875 5.09765625 C-11.48088943 5.0962413 -12.23131012 5.09482635 -13.00447083 5.09336853 C-15.3988546 5.0877756 -17.79314453 5.07522444 -20.1875 5.0625 C-21.81184761 5.05748408 -23.43619668 5.05292134 -25.06054688 5.04882812 C-29.04040069 5.03780848 -33.02018444 5.02054873 -37 5 C-37 4.67 -37 4.34 -37 4 C-26.11 4 -15.22 4 -4 4 C-4 3.34 -4 2.68 -4 2 C-2.68 2 -1.36 2 0 2 C0 1.34 0 0.68 0 0 Z " fill="#1d1e1f" transform="translate(191,129)"/>
<path d="M0 0 C0.66 0.33 1.32 0.66 2 1 C1.38511719 1.90492187 1.38511719 1.90492187 0.7578125 2.828125 C-0.05042969 4.02695312 -0.05042969 4.02695312 -0.875 5.25 C-1.40867187 6.03890625 -1.94234375 6.8278125 -2.4921875 7.640625 C-3.81905064 9.71685644 -4.90783339 11.79667257 -6 14 C-7.5 15.75 -7.5 15.75 -9 17 C-9.66 17 -10.32 17 -11 17 C-9.61772023 11.010121 -6.16125486 6.41642615 -2 2 C-1.34 2 -0.68 2 0 2 C0 1.34 0 0.68 0 0 Z " fill="#1d1e1f" transform="translate(57,32)"/>
<path d="M0 0 C2.475 0.99 2.475 0.99 5 2 C5 2.66 5 3.32 5 4 C5.66 4 6.32 4 7 4 C7 4.99 7 5.98 7 7 C7.66 7 8.32 7 9 7 C9 7.66 9 8.32 9 9 C9.66 9 10.32 9 11 9 C11.66 10.65 12.32 12.3 13 14 C7.35532718 11.70031848 3.51820299 6.82124113 0 2 C0 1.34 0 0.68 0 0 Z " fill="#1d1e1f" transform="translate(20,117)"/>
<path d="M0 0 C-4.32271896 4.18763399 -7.24475016 4.45188097 -13 5 C-15.38740541 5.93786348 -15.38740541 5.93786348 -17 7 C-11.15500532 0.83028339 -8.29844344 -0.27661478 0 0 Z " fill="#1d1e1f" transform="translate(45,75)"/>
<path d="M0 0 C4.98012761 1.50912958 8.24259942 4.55661849 12 8 C8.98968256 8.93423645 8.13349732 9.04449911 5 8 C4.67 7.01 4.34 6.02 4 5 C2.67151309 3.99357052 1.33849671 2.99307821 0 2 C0 1.34 0 0.68 0 0 Z " fill="#1d1e1f" transform="translate(108,28)"/>
<path d="M0 0 C5.80165739 0.97458672 10.83982722 2.01253155 16 5 C12.83454798 6.58272601 10.25581122 5.33086619 6.875 4.5625 C5.59367188 4.27503906 4.31234375 3.98757812 2.9921875 3.69140625 C1.51105469 3.34916016 1.51105469 3.34916016 0 3 C0 2.01 0 1.02 0 0 Z " fill="#1d1e1f" transform="translate(178,80)"/>
<path d="M0 0 C6.12352138 0.36741128 8.78651436 1.78651436 13 6 C13 6.66 13 7.32 13 8 C9.65750371 7.40312566 7.53563658 6.26396123 5 4 C5 3.34 5 2.68 5 2 C3.35 1.67 1.7 1.34 0 1 C0 0.67 0 0.34 0 0 Z " fill="#1d1e1f" transform="translate(157,52)"/>
<path d="M0 0 C6.70126536 -0.48736475 11.06561592 0.92291196 17 4 C17 4.33 17 4.66 17 5 C15.35 5 13.7 5 12 5 C12 4.34 12 3.68 12 3 C9.69 3 7.38 3 5 3 C5 2.34 5 1.68 5 1 C3.35 1 1.7 1 0 1 C0 0.67 0 0.34 0 0 Z " fill="#1d1e1f" transform="translate(91,23)"/>
<path d="M0 0 C1.93956814 0.255602 3.87665989 0.53004646 5.8125 0.8125 C7.43091797 1.03873047 7.43091797 1.03873047 9.08203125 1.26953125 C12.06440991 2.01612403 13.14223479 2.62075684 15 5 C14.67 5.66 14.34 6.32 14 7 C13.29875 6.505 12.5975 6.01 11.875 5.5 C8.62880281 3.8063319 6.60659844 3.74837685 3 4 C3 3.34 3 2.68 3 2 C2.01 2 1.02 2 0 2 C0 1.34 0 0.68 0 0 Z " fill="#1d1e1f" transform="translate(180,83)"/>
<path d="M0 0 C3.98175544 2.10148204 6.35039045 4.36905358 9 8 C8.67 8.66 8.34 9.32 8 10 C7.01 9.34 6.02 8.68 5 8 C5 7.34 5 6.68 5 6 C4.01 6 3.02 6 2 6 C1.34 4.02 0.68 2.04 0 0 Z " fill="#1d1e1f" transform="translate(194,86)"/>
<path d="M0 0 C3.93846154 3.32307692 3.93846154 3.32307692 4.25 6.75 C4.1675 7.4925 4.085 8.235 4 9 C3.01 9 2.02 9 1 9 C-0.4783226 6.04335481 -0.06032783 3.25770263 0 0 Z " fill="#1d1e1f" transform="translate(120,37)"/>
<path d="M0 0 C0.33 0.66 0.66 1.32 1 2 C-0.98 4.97 -2.96 7.94 -5 11 C-6.24546405 8.50907189 -5.7767578 7.58919267 -5 5 C-4.34 5 -3.68 5 -3 5 C-3 4.01 -3 3.02 -3 2 C-2.01 1.34 -1.02 0.68 0 0 Z " fill="#1d1e1f" transform="translate(203,117)"/>
<path d="M0 0 C0.66 0.33 1.32 0.66 2 1 C0.06273348 5.58826282 -1.48864333 7.80528594 -6 10 C-4.6302836 6.00499382 -2.74277578 3.19990508 0 0 Z " fill="#1d1e1f" transform="translate(26,82)"/>
<path d="M0 0 C0.66 0 1.32 0 2 0 C1.67 1.32 1.34 2.64 1 4 C-1.31 4.66 -3.62 5.32 -6 6 C-4 4 -2 2 0 0 Z " fill="#1d1e1f" transform="translate(32,79)"/>
<path d="M0 0 C1.32 0.33 2.64 0.66 4 1 C0.79663178 3.83374881 -1.78087253 4.5205537 -6 5 C-5.34 4.67 -4.68 4.34 -4 4 C-4 3.34 -4 2.68 -4 2 C-2.68 2 -1.36 2 0 2 C0 1.34 0 0.68 0 0 Z " fill="#1d1e1f" transform="translate(191,129)"/>
<path d="M0 0 C2.875 0.1875 2.875 0.1875 6 1 C7.375 3.5625 7.375 3.5625 8 6 C4.63408134 4.55746343 2.48952921 2.66735273 0 0 Z " fill="#1d1e1f" transform="translate(25,125)"/>
<path d="M0 0 C-0.125 1.875 -0.125 1.875 -1 4 C-4.0625 5.25 -4.0625 5.25 -7 6 C-5.52522876 2.59668175 -4.14385429 0 0 0 Z " fill="#1d1e1f" transform="translate(64,30)"/>
</svg>
